<svg width="33" height="33" viewBox="0 0 33 33" fill="none" xmlns="http://www.w3.org/2000/svg">
<path d="M21.1406 16.0156C21.1406 17.0292 20.84 18.0201 20.2769 18.8629C19.7138 19.7057 18.9133 20.3626 17.9769 20.7505C17.0404 21.1384 16.0099 21.2399 15.0158 21.0421C14.0216 20.8444 13.1084 20.3563 12.3917 19.6395C11.675 18.9228 11.1868 18.0096 10.9891 17.0154C10.7914 16.0213 10.8928 14.9908 11.2807 14.0543C11.6686 13.1179 12.3255 12.3175 13.1683 11.7543C14.0111 11.1912 15.002 10.8906 16.0156 10.8906C17.3736 10.8948 18.6747 11.4361 19.6349 12.3963C20.5951 13.3565 21.1364 14.6577 21.1406 16.0156ZM32.0312 8.96872V23.0625C32.0312 25.4411 31.0863 27.7224 29.4044 29.4043C27.7224 31.0863 25.4412 32.0312 23.0625 32.0312H8.96875C6.59009 32.0312 4.30885 31.0863 2.62689 29.4043C0.944919 27.7224 0 25.4411 0 23.0625V8.96872C0 6.59006 0.944919 4.30882 2.62689 2.62686C4.30885 0.944889 6.59009 -3.05176e-05 8.96875 -3.05176e-05H23.0625C25.4412 -3.05176e-05 27.7224 0.944889 29.4044 2.62686C31.0863 4.30882 32.0312 6.59006 32.0312 8.96872ZM23.7031 16.0156C23.7031 14.4952 23.2523 13.0089 22.4075 11.7446C21.5628 10.4804 20.3622 9.49512 18.9575 8.91327C17.5528 8.33142 16.0071 8.17918 14.5159 8.47581C13.0246 8.77243 11.6549 9.5046 10.5797 10.5797C9.50463 11.6548 8.77246 13.0246 8.47584 14.5158C8.17922 16.0071 8.33145 17.5528 8.9133 18.9575C9.49515 20.3622 10.4805 21.5628 11.7447 22.4075C13.0089 23.2522 14.4952 23.7031 16.0156 23.7031C18.0545 23.7031 20.0098 22.8932 21.4515 21.4515C22.8932 20.0098 23.7031 18.0544 23.7031 16.0156ZM26.2656 7.68747C26.2656 7.30736 26.1529 6.93578 25.9417 6.61973C25.7306 6.30368 25.4304 6.05735 25.0792 5.91189C24.728 5.76643 24.3416 5.72837 23.9688 5.80252C23.596 5.87668 23.2536 6.05972 22.9848 6.3285C22.716 6.59728 22.533 6.93972 22.4588 7.31253C22.3846 7.68534 22.4227 8.07176 22.5682 8.42294C22.7136 8.77412 22.96 9.07427 23.276 9.28545C23.5921 9.49663 23.9636 9.60934 24.3438 9.60934C24.8535 9.60934 25.3423 9.40686 25.7027 9.04644C26.0631 8.68602 26.2656 8.19718 26.2656 7.68747Z" fill="#25254C"/>
</svg>
