<svg width="35" height="35" viewBox="0 0 35 35" fill="none" xmlns="http://www.w3.org/2000/svg">
<path d="M34.1979 17.0833C34.1979 21.6141 32.3981 25.9593 29.1943 29.163C25.9906 32.3668 21.6454 34.1666 17.1146 34.1666C12.5838 34.1666 8.23859 32.3668 5.03484 29.163C1.8311 25.9593 0.03125 21.6141 0.03125 17.0833C0.03125 12.5525 1.8311 8.20731 5.03484 5.00356C8.23859 1.79982 12.5838 -3.05176e-05 17.1146 -3.05176e-05C21.6454 -3.05176e-05 25.9906 1.79982 29.1943 5.00356C32.3981 8.20731 34.1979 12.5525 34.1979 17.0833ZM17.7274 12.6117C16.0661 13.3036 12.7434 14.7343 7.76359 16.9039C6.95641 17.2242 6.53146 17.5403 6.49302 17.8478C6.42896 18.3667 7.08026 18.5717 7.96646 18.8514L8.34016 18.9689C9.21141 19.2529 10.3859 19.5839 10.9945 19.5967C11.5497 19.6095 12.1668 19.3831 12.848 18.9134C17.5011 15.7722 19.9034 14.1855 20.0529 14.1514C20.1597 14.1258 20.3092 14.0959 20.4074 14.1855C20.5078 14.2731 20.4971 14.4418 20.4864 14.4866C20.4223 14.7621 17.8662 17.1367 16.5444 18.3667C16.1323 18.7511 15.8397 19.0223 15.7799 19.0842C15.6483 19.2187 15.5144 19.3512 15.3785 19.4814C14.567 20.2629 13.9606 20.848 15.4105 21.8047C16.1088 22.266 16.6683 22.6439 17.2256 23.024C17.8321 23.4383 18.4385 23.8504 19.2244 24.3672C19.423 24.4953 19.6152 24.6341 19.8009 24.7665C20.5078 25.2705 21.1462 25.7232 21.9299 25.6506C22.3869 25.6079 22.8589 25.1808 23.098 23.8996C23.6639 20.8737 24.7765 14.3201 25.0327 11.6188C25.0483 11.3942 25.039 11.1686 25.0049 10.9461C24.9848 10.7666 24.8979 10.6012 24.7615 10.4827C24.5672 10.3486 24.3356 10.2791 24.0995 10.2841C23.4589 10.2948 22.4702 10.6386 17.7274 12.6117Z" fill="#25254C"/>
</svg>
