<svg width="30" height="32" viewBox="0 0 30 32" fill="none" xmlns="http://www.w3.org/2000/svg">
<path d="M29.953 12.9466C29.676 12.9721 29.3981 12.9853 29.1198 12.9866C26.0681 12.9869 23.2218 11.5345 21.5501 9.12366V22.2778C21.5501 27.6472 16.9404 32 11.254 32C5.56755 32 0.957764 27.6472 0.957764 22.2778C0.957764 16.9083 5.56755 12.5555 11.254 12.5555C11.4689 12.5555 11.679 12.5737 11.8903 12.5864V17.3773C11.679 17.3534 11.4713 17.3169 11.254 17.3169C8.35173 17.3169 5.99898 19.5385 5.99898 22.2789C5.99898 25.0194 8.35173 27.2409 11.254 27.2409C14.1567 27.2409 16.7202 25.0814 16.7202 22.3405L16.7709 0H21.625C22.0827 4.11026 25.5925 7.32074 29.9578 7.62201V12.9466" fill="#25254C"/>
</svg>
