<svg width="37" height="27" viewBox="0 0 37 27" fill="none" xmlns="http://www.w3.org/2000/svg">
<path d="M35.8868 4.85557C35.6825 4.09498 35.2821 3.40137 34.7256 2.84415C34.1691 2.28693 33.476 1.88565 32.7157 1.68047C29.9169 0.927735 18.698 0.927734 18.698 0.927734C18.698 0.927734 7.47905 0.927734 4.68032 1.67646C3.91966 1.88098 3.2262 2.28204 2.66958 2.83936C2.11297 3.39668 1.71278 4.09064 1.50923 4.85156C0.760498 7.6543 0.760498 13.5 0.760498 13.5C0.760498 13.5 0.760498 19.3457 1.50923 22.1444C1.92163 23.6899 3.13882 24.9071 4.68032 25.3195C7.47905 26.0723 18.698 26.0723 18.698 26.0723C18.698 26.0723 29.9169 26.0723 32.7157 25.3195C34.2612 24.9071 35.4744 23.6899 35.8868 22.1444C36.6355 19.3457 36.6355 13.5 36.6355 13.5C36.6355 13.5 36.6355 7.6543 35.8868 4.85557ZM15.1345 18.8652V8.13477L24.4236 13.46L15.1345 18.8652Z" fill="#25254C"/>
</svg>
